<svg 
 xmlns="http://www.w3.org/2000/svg"
 xmlns:xlink="http://www.w3.org/1999/xlink"
 width="861px" height="1000px">
<path fill-rule="evenodd"  fill="rgb(133, 54, 255)"
 d="M513.330,30.223 C506.407,109.711 487.157,190.532 513.330,264.406 C547.603,361.144 631.116,405.654 682.619,487.303 C696.491,509.295 702.719,537.83 710.834,562.542 C747.124,676.404 688.930,852.921 530.259,939.680 C483.810,965.77 434.118,969.776 358.149,969.776 C290.717,969.776 243.843,971.95 172.871,929.335 C78.352,865.513 -9.549,792.500 1.702,595.460 C3.451,564.823 11.353,528.367 19.571,500.470 C45.656,411.917 69.979,363.304 68.477,365.39 C109.854,376.950 151.244,388.866 192.622,400.777 C210.732,237.199 303.102,139.77 424.924,76.307 C443.725,66.619 493.594,40.736 513.330,30.223 Z"/>
<path fill-rule="evenodd"  stroke="rgb(0, 0, 0)" stroke-width="0px" stroke-linecap="butt" stroke-linejoin="miter" fill="rgb(46, 189, 219)"
 d="M458.314,369.522 C453.891,420.305 441.593,471.939 458.314,519.135 C480.210,580.939 533.564,609.375 566.468,661.538 C575.331,675.589 579.309,693.341 584.494,709.607 C607.679,782.350 570.500,895.122 469.129,950.550 C439.454,966.776 407.707,969.778 359.172,969.778 C316.92,969.778 286.146,970.620 240.804,943.941 C180.418,903.167 124.260,856.521 131.448,730.637 C132.566,711.64 137.614,687.773 142.864,669.950 C159.529,613.377 175.69,582.319 174.109,583.427 C200.544,591.37 226.987,598.650 253.422,606.260 C264.992,501.754 324.4,439.66 401.833,398.964 C413.845,392.775 445.705,376.239 458.314,369.522 Z"/>
<rect  x="361px" y="0px" width="500px" height="1000px" />
</svg>